<svg width="14" height="14" xmlns="http://www.w3.org/2000/svg" xmlns:xlink="http://www.w3.org/1999/xlink"><defs><path d="M12 13.5l-5.155 5.155c-.312.312-1.144.544-1.594.094-.45-.45-.218-1.282.094-1.594L10.5 12 5.345 6.845C5.033 6.533 4.8 5.7 5.25 5.25c.45-.45 1.282-.218 1.594.094L12 10.5l5.155-5.155c.312-.312 1.144-.544 1.594-.094.45.45.218 1.282-.094 1.594L13.5 12l5.155 5.155c.312.312.544 1.144.094 1.594-.45.45-1.282.218-1.594-.094L12 13.5z" id="a"/></defs><use fill="#FFF" xlink:href="#a" transform="translate(-5 -5)" fill-rule="evenodd"/></svg>