<svg width="16" height="16" xmlns="http://www.w3.org/2000/svg"><g transform="translate(-9 -7)" fill="none" fill-rule="evenodd"><rect width="32" height="32" rx="16"/><path d="M12.438 23H9V12.312h3.438V23zm-1.6-12.313h-.025C9.713 10.688 9 9.87 9 8.845 9 7.8 9.731 7 10.856 7s1.813.794 1.838 1.844c0 1.025-.713 1.844-1.857 1.844zM25 23h-3.438v-5.844c0-1.4-.5-2.356-1.743-2.356-.95 0-1.513.644-1.763 1.269-.093.225-.118.531-.118.844V23H14.5V12.312h3.438V13.8c.5-.712 1.28-1.737 3.1-1.737 2.256 0 3.962 1.487 3.962 4.693V23z" fill="#000"/></g></svg>