<svg width="18" height="8" xmlns="http://www.w3.org/2000/svg"><path d="M1.093 0h15.814c.246 0 .435.04.594.116a.843.843 0 0 1 .369.327c.085.142.13.31.13.528v.058a.989.989 0 0 1-.13.528.843.843 0 0 1-.369.327 1.351 1.351 0 0 1-.594.116H1.093c-.246 0-.435-.04-.594-.116a.843.843 0 0 1-.369-.327.989.989 0 0 1-.13-.528V.97C0 .753.045.585.13.443A.843.843 0 0 1 .5.116C.658.04.847 0 1.093 0zm0 6h15.814c.246 0 .435.04.594.116a.843.843 0 0 1 .369.327c.085.142.13.31.13.528v.058a.989.989 0 0 1-.13.528.843.843 0 0 1-.369.327 1.351 1.351 0 0 1-.594.116H1.093c-.246 0-.435-.04-.594-.116a.843.843 0 0 1-.369-.327.989.989 0 0 1-.13-.528V6.97c0-.218.045-.386.13-.528a.843.843 0 0 1 .37-.326C.658 6.04.847 6 1.093 6z" fill-rule="evenodd"/></svg>