<svg width="16" height="12" xmlns="http://www.w3.org/2000/svg" xmlns:xlink="http://www.w3.org/1999/xlink"><defs><path d="M14.202 1.87s1.283-.093 1.798-.45c0 0-.123.41-1.668 1.708 0 0 .52 7.003-7.402 8.718 0 0-4.018.796-6.93-1.234 0 0 3.048.503 4.763-1.255 0 0-2.212.02-2.912-2.072 0 0 .835.167 1.332-.042 0 0-2.506-.481-2.46-3.013 0 0 .677.46 1.286.376 0 0-2.257-1.779-.858-3.996 0 0 3.024 3.315 6.772 3.118a2.793 2.793 0 0 1-.1-.743C7.822 1.337 9.264 0 11.042 0c.899 0 1.712.342 2.296.892a3.9 3.9 0 0 0 2.19-.648s.05.638-1.327 1.627z" id="a"/></defs><g transform="translate(-8 -10)" fill="none" fill-rule="evenodd"><circle cx="16" cy="16" r="16"/><g transform="translate(8 10)"><mask id="b" fill="#fff"><use xlink:href="#a"/></mask><path fill="#FFF" mask="url(#b)" d="M0-2h16v16H0z"/></g></g></svg>